<svg id="svg" version="1.1" width="400" height="400" viewBox="0 0 400 400" xmlns="http://www.w3.org/2000/svg" xmlns:xlink="http://www.w3.org/1999/xlink" ><g id="svgg"><path id="path0" d="M0.000 200.000 L 0.000 400.000 200.000 400.000 L 400.000 400.000 400.000 200.000 L 400.000 0.000 200.000 0.000 L 0.000 0.000 0.000 200.000 M156.089 122.711 L 157.000 123.622 157.000 188.111 C 157.000 248.726,156.956 252.852,156.270 256.800 C 152.411 279.017,138.312 291.623,114.142 294.468 C 104.402 295.615,105.000 296.457,105.000 281.600 C 105.000 268.140,104.648 269.227,109.716 267.024 C 114.635 264.886,117.412 262.254,119.452 257.799 C 121.939 252.366,121.756 257.432,121.988 187.561 C 122.216 118.755,122.079 122.846,124.186 121.973 C 124.634 121.788,131.790 121.673,140.089 121.718 L 155.179 121.800 156.089 122.711 M256.379 122.032 C 286.302 125.813,297.392 136.370,296.683 160.400 C 296.242 175.335,291.100 184.016,278.639 190.863 C 273.705 193.574,273.648 194.211,278.085 197.053 C 285.896 202.057,289.062 206.824,302.221 233.400 C 313.849 256.884,313.177 255.260,311.830 256.606 L 310.811 257.626 294.431 257.513 L 278.052 257.400 276.809 256.209 C 276.126 255.554,274.606 253.034,273.432 250.609 C 256.909 216.483,254.402 212.374,248.105 209.096 C 241.405 205.608,227.764 205.227,227.005 208.507 C 226.891 208.998,226.754 219.660,226.699 232.200 C 226.645 244.740,226.443 255.322,226.252 255.715 C 225.381 257.500,224.469 257.600,208.994 257.600 C 194.042 257.600,193.259 257.527,192.113 256.035 C 191.402 255.109,191.402 124.088,192.113 123.171 C 192.381 122.825,192.960 122.335,193.400 122.083 C 194.487 121.460,251.483 121.414,256.379 122.032 M228.600 146.862 C 226.793 147.851,226.800 147.779,226.800 164.076 C 226.800 183.704,225.433 181.762,239.064 181.501 C 256.565 181.166,261.797 176.982,261.701 163.400 C 261.631 153.502,257.978 149.034,248.274 146.978 C 244.928 146.269,229.847 146.180,228.600 146.862 " stroke="none" fill="#000000" fill-rule="evenodd"></path><path id="path1" d="M124.186 121.973 C 122.079 122.846,122.216 118.755,121.988 187.561 C 121.756 257.432,121.939 252.366,119.452 257.799 C 117.412 262.254,114.635 264.886,109.716 267.024 C 104.648 269.227,105.000 268.140,105.000 281.600 C 105.000 296.457,104.402 295.615,114.142 294.468 C 138.312 291.623,152.411 279.017,156.270 256.800 C 156.956 252.852,157.000 248.726,157.000 188.111 L 157.000 123.622 156.089 122.711 L 155.179 121.800 140.089 121.718 C 131.790 121.673,124.634 121.788,124.186 121.973 M193.400 122.083 C 192.960 122.335,192.381 122.825,192.113 123.171 C 191.402 124.088,191.402 255.109,192.113 256.035 C 193.259 257.527,194.042 257.600,208.994 257.600 C 224.469 257.600,225.381 257.500,226.252 255.715 C 226.443 255.322,226.645 244.740,226.699 232.200 C 226.754 219.660,226.891 208.998,227.005 208.507 C 227.764 205.227,241.405 205.608,248.105 209.096 C 254.402 212.374,256.909 216.483,273.432 250.609 C 274.606 253.034,276.126 255.554,276.809 256.209 L 278.052 257.400 294.431 257.513 L 310.811 257.626 311.830 256.606 C 313.177 255.260,313.849 256.884,302.221 233.400 C 289.062 206.824,285.896 202.057,278.085 197.053 C 273.648 194.211,273.705 193.574,278.639 190.863 C 291.100 184.016,296.242 175.335,296.683 160.400 C 297.392 136.370,286.302 125.813,256.379 122.032 C 251.483 121.414,194.487 121.460,193.400 122.083 M248.274 146.978 C 257.978 149.034,261.631 153.502,261.701 163.400 C 261.797 176.982,256.565 181.166,239.064 181.501 C 225.433 181.762,226.800 183.704,226.800 164.076 C 226.800 147.779,226.793 147.851,228.600 146.862 C 229.847 146.180,244.928 146.269,248.274 146.978 " stroke="none" fill="#ffffff" fill-rule="evenodd"></path></g></svg>